<?xml version="1.0" encoding="utf-8"?>
<!-- Generator: Adobe Illustrator 16.0.0, SVG Export Plug-In . SVG Version: 6.00 Build 0)  -->
<!DOCTYPE svg PUBLIC "-//W3C//DTD SVG 1.1//EN" "http://www.w3.org/Graphics/SVG/1.1/DTD/svg11.dtd">
<svg version="1.1" id="Capa_1" xmlns="http://www.w3.org/2000/svg" xmlns:xlink="http://www.w3.org/1999/xlink" x="0px" y="0px"
	 width="650px" height="650px" viewBox="-19 71 650 650" enable-background="new -19 71 650 650" xml:space="preserve">
<g id="Previous_track">
	<path d="M579.27,146.062c-7.951,0-18.482-0.976-26.957,4.882L327.679,340.63V181.767c0-6.104,0.139-35.708-31.661-35.708
		c-7.95,0-18.479-0.976-26.958,4.882L20.808,360.573C-2.733,376.822,1.338,396,1.338,396s-4.068,19.181,19.47,35.428
		l248.252,209.631c8.478,5.855,19.008,4.879,26.958,4.879c31.802,0,31.661-28.486,31.661-35.707V451.369l224.634,189.689
		c8.477,5.855,19.008,4.879,26.957,4.879c31.802,0,31.66-28.486,31.66-35.707V181.767
		C610.93,175.666,611.071,146.062,579.27,146.062z"/>
</g>
</svg>
