<?xml version="1.0" encoding="utf-8"?>
<!-- Generator: Adobe Illustrator 16.0.0, SVG Export Plug-In . SVG Version: 6.00 Build 0)  -->
<!DOCTYPE svg PUBLIC "-//W3C//DTD SVG 1.1//EN" "http://www.w3.org/Graphics/SVG/1.1/DTD/svg11.dtd">
<svg version="1.1" id="Capa_1" xmlns="http://www.w3.org/2000/svg" xmlns:xlink="http://www.w3.org/1999/xlink" x="0px" y="0px"
	 width="650px" height="650px" viewBox="-19 71 650 650" enable-background="new -19 71 650 650" xml:space="preserve">
<g id="Next_track_2">
	<path d="M591.191,360.574L342.937,150.942c-8.473-5.858-19.002-4.882-26.954-4.882c-31.799,0-31.658,28.486-31.658,35.708v158.861
		L59.688,150.942c-8.478-5.858-19.007-4.882-26.957-4.882c-31.8,0.002-31.661,28.488-31.661,35.708v428.463
		c0,6.104-0.139,35.707,31.661,35.707c7.949,0,18.479,0.977,26.957-4.881L284.324,451.37v158.861
		c0,6.104-0.141,35.707,31.658,35.707c7.952,0,18.481,0.977,26.954-4.881l248.255-209.629
		c23.539-16.252,19.471-35.428,19.471-35.428S614.73,376.823,591.191,360.574z"/>
</g>
</svg>
