<?xml version="1.0" encoding="utf-8"?>
<!-- Generator: Adobe Illustrator 16.0.0, SVG Export Plug-In . SVG Version: 6.00 Build 0)  -->
<!DOCTYPE svg PUBLIC "-//W3C//DTD SVG 1.1//EN" "http://www.w3.org/Graphics/SVG/1.1/DTD/svg11.dtd">
<svg version="1.1" id="Capa_1" xmlns="http://www.w3.org/2000/svg" xmlns:xlink="http://www.w3.org/1999/xlink" x="0px" y="0px"
	 width="650px" height="650px" viewBox="-19 71 650 650" enable-background="new -19 71 650 650" xml:space="preserve">
<g id="Next_track">
	<path d="M479.892,146h-65.211c-24.009,0-43.469,19.463-43.469,43.474v151.885L147.115,152.125c-8.46-5.844-18.962-4.87-26.893-4.87
		c-31.724,0-31.585,28.418-31.585,35.622v427.439c0,6.089-0.139,35.622,31.585,35.622c7.93,0,18.433,0.974,26.893-4.87
		l224.1-189.233v150.629c0,24.01,19.459,43.472,43.469,43.472h65.21c24.01,0,43.473-19.462,43.473-43.472V189.474
		C523.366,165.463,503.903,146,479.892,146z"/>
</g>
</svg>
