<?xml version="1.0" encoding="utf-8"?>
<!-- Generator: Adobe Illustrator 16.0.0, SVG Export Plug-In . SVG Version: 6.00 Build 0)  -->
<!DOCTYPE svg PUBLIC "-//W3C//DTD SVG 1.1//EN" "http://www.w3.org/Graphics/SVG/1.1/DTD/svg11.dtd">
<svg version="1.1" id="Capa_1" xmlns="http://www.w3.org/2000/svg" xmlns:xlink="http://www.w3.org/1999/xlink" x="0px" y="0px"
	 width="650px" height="650px" viewBox="-22.681 79.676 650 650" enable-background="new -22.681 79.676 650 650"
	 xml:space="preserve">
<g id="Previous_track_1_">
	<path d="M488.1,154.737c-7.931,0-18.435-0.974-26.89,4.87l-224.098,189.23V198.211c0-24.012-19.463-43.475-43.473-43.475h-65.212
		c-24.007,0-43.473,19.462-43.473,43.475v412.992c0,24.012,19.465,43.473,43.473,43.473h65.212c24.01,0,43.473-19.461,43.473-43.473
		V459.32L461.21,648.553c8.455,5.844,18.959,4.869,26.89,4.869c31.726,0,31.585-28.42,31.585-35.623v-427.44
		C519.682,184.27,519.822,154.737,488.1,154.737z"/>
</g>
</svg>
